<?xml version="1.0" encoding="utf-8"?>
<!-- Generator: Adobe Illustrator 22.1.0, SVG Export Plug-In . SVG Version: 6.00 Build 0)  -->
<svg version="1.1" id="Layer_1" xmlns="http://www.w3.org/2000/svg" xmlns:xlink="http://www.w3.org/1999/xlink" x="0px" y="0px"
	 viewBox="0 0 1651 101.1" style="enable-background:new 0 0 1651 101.1;" xml:space="preserve">
<style type="text/css">
	.st0{fill:#67788A;}
	.st1{fill:#1C2B33;}
</style>
<g>
	<g>
		<path class="st0" d="M96.2,9.3v11.4c0,0.7-0.5,1.2-1.2,1.2H46v23.3h40.5c0.7,0,1.2,0.5,1.2,1.2v11.4c0,0.7-0.5,1.2-1.2,1.2H46
			v34.5c0,0.7-0.5,1.2-1.2,1.2H32.4c-0.7,0-1.2-0.5-1.2-1.2V9.3c0-0.7,0.5-1.2,1.2-1.2H95C95.7,8.1,96.2,8.6,96.2,9.3z"/>
		<path class="st0" d="M196.3,95h-13.5c-0.7,0-1.2-0.4-1.4-1.1c-1.8-7.1-4-14.7-6.5-22.2h-41.6c-2.5,7.6-4.7,15.1-6.4,22.2
			c-0.2,0.7-0.7,1.1-1.4,1.1h-13c-0.9,0-1.4-0.5-1.1-1.4c7.8-27.7,19.7-58.2,31.8-83.9c0.6-1.2,1.2-1.6,2.4-1.6h17.6
			c1.2,0,1.9,0.4,2.4,1.6c12.2,25.6,23.9,56.3,31.8,83.9C197.6,94.5,197.1,95,196.3,95z M170.3,58.2c-4.5-12.5-9.6-25.1-14.7-36.5
			h-2.9c-5.2,11.4-10.2,24-14.8,36.5H170.3z"/>
		<path class="st0" d="M218.5,52.3c0-26.9,17.8-45.8,43.1-45.8h1.9c15.9,0,28.2,8.1,34.7,19.7c0.4,0.7,0.3,1.4-0.4,1.7l-10.9,5.4
			c-0.7,0.4-1.7,0.4-2.2-0.6c-4.6-7.9-11.5-12.2-21.7-12.2h-1.9c-16,0-26.9,12.7-26.9,31c0,18.4,10.8,30.8,26.9,30.8h1.9
			c10.4,0,16.5-3.5,21.2-8.9c0.6-0.7,1.3-0.8,2-0.4l11.2,5.5c0.4,0.2,0.6,0.6,0.6,0.9c0,0.3-0.1,0.6-0.4,0.9
			c-6.9,10.1-19.3,16.3-34.5,16.3h-1.8C235.6,96.6,218.5,78.9,218.5,52.3z"/>
		<path class="st0" d="M397.1,82.3v11.4c0,0.7-0.5,1.2-1.2,1.2h-65.2c-0.7,0-1.2-0.5-1.2-1.2V9.3c0-0.7,0.5-1.2,1.2-1.2h64.1
			c0.7,0,1.2,0.5,1.2,1.2v11.4c0,0.7-0.5,1.2-1.2,1.2h-50.5v22.6h41c0.7,0,1.2,0.5,1.2,1.2V57c0,0.7-0.5,1.2-1.2,1.2h-41.1v22.7
			h51.7C396.6,81.1,397.1,81.6,397.1,82.3z"/>
		<path class="st0" d="M509.3,71.1c0,15.2-11.7,23.8-32.3,23.8h-42.7c-0.7,0-1.2-0.5-1.2-1.2V9.3c0-0.7,0.5-1.2,1.2-1.2h38.9
			c20.1,0,31,7.9,31,22.5c0,9.6-4.8,15.8-14.7,18.8C503.4,52.2,509.3,60.5,509.3,71.1z M472.9,21.6h-25.1v23.3h25.1
			c11.2,0,16.4-3.7,16.4-11.7S484.2,21.6,472.9,21.6z M494.2,69.8c0-8.1-5.3-11.7-17.1-11.7h-29.2v23.3h29.2
			C489,81.4,494.2,78,494.2,69.8z"/>
		<path class="st0" d="M535.3,51.5c0-26.2,17.4-45.1,44.7-45.1h1.9c27.3,0,44.7,18.9,44.7,45.1s-17.4,45.1-44.7,45.1H580
			C552.7,96.6,535.3,77.7,535.3,51.5z M581.9,82.4c17.8,0,29.1-12.2,29.1-30.9s-11.2-30.9-29.1-30.9H580
			c-17.8,0-29.1,12.2-29.1,30.9s11.2,30.9,29.1,30.9H581.9z"/>
		<path class="st0" d="M651.8,51.5c0-26.2,17.4-45.1,44.7-45.1h1.9c27.3,0,44.7,18.9,44.7,45.1s-17.4,45.1-44.7,45.1h-1.9
			C669.2,96.6,651.8,77.7,651.8,51.5z M698.4,82.4c17.8,0,29.1-12.2,29.1-30.9s-11.2-30.9-29.1-30.9h-1.9
			c-17.8,0-29.1,12.2-29.1,30.9s11.2,30.9,29.1,30.9H698.4z"/>
		<path class="st0" d="M850.2,95h-16c-1.1,0-1.5-0.2-2.2-1.1c-11.2-13.2-24.5-26.4-35.8-36.1H789v35.9c0,0.7-0.5,1.2-1.2,1.2h-12.3
			c-0.7,0-1.2-0.5-1.2-1.2V9.3c0-0.7,0.5-1.2,1.2-1.2h12.3c0.7,0,1.2,0.5,1.2,1.2v34.3h7.3c12.1-10.9,23.3-22.7,32.4-34.6
			c0.6-0.8,1.1-0.9,1.9-0.9h15.1c0.7,0,1.1,0.4,1.1,0.9c0,0.2-0.1,0.6-0.4,0.9c-13.3,16.5-26.6,29.9-38.8,40.4
			c15.4,13,30,27.6,43.3,43.2C851.5,94.2,851.2,95,850.2,95z"/>
	</g>
	<g>
		<path class="st1" d="M901.5,94.8V41.6h-11.6v-8.5h11.6v-7.8c0-7.3,1.9-12.9,5.6-16.7c3.7-3.8,8.9-5.7,15.5-5.7
			c3.9,0,7.3,0.4,10.2,1.3v8.7c-1.7-0.5-3.3-0.8-4.7-0.9c-1.4-0.2-2.8-0.2-4.2-0.2c-8.4,0-12.6,4.3-12.6,12.9v8.4h21v8.5h-21v53.2
			L901.5,94.8L901.5,94.8z"/>
		<path class="st1" d="M971.4,96.2c-6.2,0-11.5-1.4-16-4.2s-8-6.6-10.5-11.4s-3.7-10.4-3.7-16.6c0-6.3,1.2-11.9,3.7-16.7
			s5.9-8.6,10.5-11.4c4.5-2.8,9.8-4.2,16-4.2h1.2c6.2,0,11.5,1.4,16,4.2c4.5,2.8,8,6.6,10.5,11.4s3.7,10.4,3.7,16.7
			c0,6.2-1.2,11.8-3.7,16.6s-5.9,8.6-10.5,11.4s-9.8,4.2-16,4.2H971.4z M971.5,87.2h1.1c6.2,0,11-2.1,14.6-6.3s5.4-9.8,5.4-16.8
			s-1.8-12.6-5.4-16.8s-8.5-6.3-14.6-6.3h-1.1c-6.2,0-11,2.1-14.6,6.3c-3.6,4.2-5.4,9.8-5.4,16.8s1.8,12.6,5.4,16.8
			C960.5,85,965.3,87.2,971.5,87.2z"/>
		<path class="st1" d="M1021.6,94.8V33.1h9.8v10.7c1.9-3.9,4.4-6.9,7.4-9s6.5-3.1,10.5-3.1c1.9,0,3.7,0.2,5.5,0.6v9.8
			c-1-0.1-2-0.2-3.1-0.3c-1.1-0.1-2.2-0.1-3.2-0.1c-4.5,0-8.2,1.4-11,4.1c-2.8,2.8-4.9,6.4-6.2,11v38H1021.6z"/>
		<path class="st1" d="M1102.2,94.8V8h35.7c9.4,0,16.6,2,21.4,5.9c4.9,3.9,7.3,9.4,7.3,16.5c0,4.6-1.1,8.6-3.3,11.9
			c-2.2,3.3-5.9,5.8-11.1,7.4c6.8,1.4,11.7,4,14.7,7.8s4.5,8.5,4.5,14c0,7.4-2.6,13.1-7.7,17.2c-5.1,4.1-12.6,6.2-22.3,6.2h-39.2
			V94.8z M1137.2,17.5h-24.8v29.2h25.6c12.1,0,18.1-4.9,18.1-14.6c0-5-1.6-8.6-4.7-11S1143.7,17.5,1137.2,17.5z M1140.8,56.1h-28.4
			v29.2h28.9c13,0,19.5-4.9,19.5-14.6c0-4.8-1.5-8.5-4.5-10.9C1153.3,57.3,1148.2,56.1,1140.8,56.1z"/>
		<path class="st1" d="M1211.1,96.2c-7.2,0-12.6-2.3-16.4-7s-5.6-11.3-5.6-19.9V33.1h9.8v34.7c0,6.4,1.2,11.2,3.6,14.4
			s6.1,4.9,11.1,4.9h1.1c4.6,0,8.5-1.5,11.8-4.5s5.7-6.8,7.2-11.3V33h9.8v61.7h-9.8V83c-2.3,4.1-5.2,7.2-8.8,9.6
			c-3.6,2.3-7.8,3.5-12.5,3.5h-1.3V96.2z"/>
		<path class="st1" d="M1287.4,96.2c-12.3,0-21.3-4-26.8-12.1l6.8-6c4.4,6.3,11,9.4,19.9,9.4h1.1c4.5,0,8.1-0.8,10.6-2.4
			c2.5-1.6,3.8-3.8,3.8-6.7c0-2.5-0.9-4.5-2.6-6s-4.6-2.6-8.7-3.5l-11.2-2.3c-11.8-2.4-17.7-7.9-17.7-16.6c0-5.5,2.2-10,6.6-13.4
			s10.2-5.1,17.4-5.1h1.2c10.5,0,18.4,3.8,23.6,11.5l-6.8,5.5c-2.1-2.9-4.5-5.1-7.3-6.4s-6-2-9.6-2h-1.1c-4.3,0-7.7,0.8-10.3,2.4
			c-2.6,1.6-3.9,3.8-3.9,6.6c0,2.2,0.8,3.9,2.4,5.2s4.3,2.3,8.1,3.1l12.2,2.5c5.5,1.2,9.8,3.2,12.9,6c3.1,2.9,4.6,6.7,4.6,11.7
			c0,5.4-2.1,9.8-6.3,13.2c-4.2,3.4-10.1,5.1-17.7,5.1h-1.2V96.2z"/>
		<path class="st1" d="M1335.5,20.1c-2.1,0-3.8-0.6-5-1.9s-1.9-2.9-1.9-5c0-2,0.6-3.7,1.9-5c1.2-1.3,2.9-1.9,5-1.9s3.8,0.6,5,1.9
			s1.9,2.9,1.9,5c0,2-0.6,3.7-1.9,5C1339.3,19.5,1337.6,20.1,1335.5,20.1z M1330.6,94.8V33.1h9.8v61.7H1330.6z"/>
		<path class="st1" d="M1362.7,94.8V33.1h9.8v11.7c2.3-4.1,5.2-7.2,8.8-9.6c3.6-2.3,7.8-3.5,12.5-3.5h1.2c7,0,12.4,2.3,16.3,7
			c3.8,4.7,5.8,11.3,5.8,19.9v36.2h-9.8V60.1c0-6.4-1.2-11.2-3.5-14.4c-2.4-3.2-6.1-4.8-11.1-4.8h-1.2c-4.6,0-8.5,1.5-11.8,4.5
			c-3.2,3-5.6,6.7-7.2,11.2v38.3h-9.8V94.8z"/>
		<path class="st1" d="M1464.4,96.2c-5.9,0-11-1.3-15.5-4c-4.4-2.7-7.9-6.5-10.3-11.3s-3.7-10.5-3.7-16.9c0-6.3,1.2-11.9,3.7-16.7
			c2.4-4.9,5.8-8.7,10.2-11.4c4.4-2.8,9.4-4.1,15.2-4.1h1.2c5.5,0,10.2,1.4,14.3,4.1c4.1,2.7,7.2,6.5,9.4,11.4
			c2.2,4.9,3.3,10.7,3.3,17.4v3.4H1445c0.7,5.9,2.7,10.6,6.2,14.1s8,5.2,13.6,5.2h1.1c3.3,0,6.4-0.7,9.2-2c2.8-1.3,5.2-3.1,7.2-5.5
			l6.3,6.4c-2.7,3.1-6,5.5-10,7.3s-8.3,2.7-13,2.7L1464.4,96.2L1464.4,96.2z M1463.8,40.6c-5.1,0-9.4,1.7-12.7,5.2
			c-3.4,3.5-5.4,8.2-6,14h37.2c-0.3-5.5-1.9-10-4.9-13.7s-7.1-5.5-12.4-5.5H1463.8z"/>
		<path class="st1" d="M1532.3,96.2c-12.3,0-21.3-4-26.8-12.1l6.8-6c4.4,6.3,11,9.4,19.9,9.4h1.1c4.5,0,8.1-0.8,10.6-2.4
			c2.5-1.6,3.8-3.8,3.8-6.7c0-2.5-0.9-4.5-2.6-6s-4.6-2.6-8.7-3.5l-11.2-2.3c-11.8-2.4-17.7-7.9-17.7-16.6c0-5.5,2.2-10,6.6-13.4
			s10.2-5.1,17.4-5.1h1.2c10.5,0,18.4,3.8,23.6,11.5l-6.8,5.5c-2.1-2.9-4.5-5.1-7.3-6.4s-6-2-9.6-2h-1.1c-4.3,0-7.7,0.8-10.3,2.4
			c-2.6,1.6-3.9,3.8-3.9,6.6c0,2.2,0.8,3.9,2.4,5.2s4.3,2.3,8.1,3.1l12.2,2.5c5.5,1.2,9.8,3.2,12.9,6c3.1,2.9,4.6,6.7,4.6,11.7
			c0,5.4-2.1,9.8-6.3,13.2c-4.2,3.4-10.1,5.1-17.7,5.1h-1.2V96.2z"/>
		<path class="st1" d="M1597.1,96.2c-12.3,0-21.3-4-26.8-12.1l6.8-6c4.4,6.3,11,9.4,19.9,9.4h1.1c4.5,0,8.1-0.8,10.6-2.4
			c2.5-1.6,3.8-3.8,3.8-6.7c0-2.5-0.9-4.5-2.6-6s-4.6-2.6-8.7-3.5l-11.2-2.3c-11.8-2.4-17.7-7.9-17.7-16.6c0-5.5,2.2-10,6.6-13.4
			s10.2-5.1,17.4-5.1h1.2c10.5,0,18.4,3.8,23.6,11.5l-6.8,5.5c-2.1-2.9-4.5-5.1-7.3-6.4s-6-2-9.6-2h-1.1c-4.3,0-7.7,0.8-10.3,2.4
			c-2.6,1.6-3.9,3.8-3.9,6.6c0,2.2,0.8,3.9,2.4,5.2s4.3,2.3,8.1,3.1l12.2,2.5c5.5,1.2,9.8,3.2,12.9,6c3.1,2.9,4.6,6.7,4.6,11.7
			c0,5.4-2.1,9.8-6.3,13.2c-4.2,3.4-10.1,5.1-17.7,5.1h-1.2V96.2z"/>
	</g>
</g>
</svg>
